# Blender v2.77 (sub 0) OBJ File: ''
# www.blender.org
mtllib dof.mtl
o rightWall
v 1.000000 0.000000 -5.000000
v 1.000000 -0.000000 5.000000
v 1.000000 2.000000 5.000000
v 1.000000 2.000000 -5.000000
vn -1.0000 0.0000 0.0000
usemtl rightWall
s off
f 1//1 2//1 3//1 4//1
o floor
v -1.000000 -0.000000 5.000000
v 1.000000 -0.000000 5.000000
v 1.000000 0.000000 -5.000000
v -1.000000 0.000000 -5.000000
vn 0.0000 1.0000 0.0000
usemtl floor
s off
f 5//2 6//2 7//2 8//2
o light
v -0.240000 1.995000 0.160000
v -0.240000 1.995000 -0.220000
v 0.230000 1.995000 -0.220000
v 0.230000 1.995000 0.160000
vn 0.0000 -1.0000 0.0000
usemtl light
s off
f 9//3 10//3 11//3 12//3
o leftWall
v -1.000000 -0.000000 5.000000
v -1.000000 0.000000 -5.000000
v -1.000000 2.000000 -5.000000
v -1.000000 2.000000 5.000000
vn 1.0000 0.0000 0.0000
usemtl leftWall
s off
f 13//4 14//4 15//4 16//4
o backWall
v -1.000000 0.000000 -1.000000
v 1.000000 0.000000 -1.000000
v 1.000000 2.000000 -1.000000
v -1.000000 2.000000 -1.000000
vn 0.0000 -0.0000 1.0000
usemtl backWall
s off
f 17//5 18//5 19//5 20//5
o ceiling
v -1.000000 2.000000 5.000000
v -1.000000 2.000000 -5.000000
v 1.000000 2.000000 -5.000000
v 1.000000 2.000000 5.000000
vn 0.0000 -1.0000 -0.0000
usemtl ceiling
s off
f 21//6 22//6 23//6 24//6
o backWall.001
v -1.000000 0.000000 3.994756
v 1.000000 0.000000 3.994756
v 1.000000 2.000000 3.994756
v -1.000000 2.000000 3.994756
vn 0.0000 0.0000 1.0000
usemtl backWall
s off
f 25//7 26//7 27//7 28//7


g splight
usemtl spot

v	-0.03  1.994   0.03
v	-0.03  1.994  -0.06
v	 0.03  1.994  -0.06
v	 0.03  1.994   0.03
f -4 -3 -2 -1
